<svg xmlns="http://www.w3.org/2000/svg" xmlns:xlink="http://www.w3.org/1999/xlink" width="2000" zoomAndPan="magnify" viewBox="0 0 1500 1499.999933" height="2000" preserveAspectRatio="xMidYMid meet" version="1.0"><defs><g/><clipPath id="d075b146d1"><path d="M 70.5 0 L 1429.5 0 C 1468.4375 0 1500 31.5625 1500 70.5 L 1500 1429.5 C 1500 1468.4375 1468.4375 1500 1429.5 1500 L 70.5 1500 C 31.5625 1500 0 1468.4375 0 1429.5 L 0 70.5 C 0 31.5625 31.5625 0 70.5 0 Z M 70.5 0 " clip-rule="nonzero"/></clipPath><clipPath id="4f30123252"><path d="M 0 0 L 1500 0 L 1500 1500 L 0 1500 Z M 0 0 " clip-rule="nonzero"/></clipPath><clipPath id="7e3c71b7f7"><path d="M 70.5 0 L 1429.5 0 C 1468.4375 0 1500 31.5625 1500 70.5 L 1500 1429.5 C 1500 1468.4375 1468.4375 1500 1429.5 1500 L 70.5 1500 C 31.5625 1500 0 1468.4375 0 1429.5 L 0 70.5 C 0 31.5625 31.5625 0 70.5 0 Z M 70.5 0 " clip-rule="nonzero"/></clipPath><clipPath id="5863a20dde"><rect x="0" width="1500" y="0" height="1500"/></clipPath><clipPath id="1dc685eddf"><path d="M 0.773438 0 L 1427 0 L 1427 1032.25 L 0.773438 1032.25 Z M 0.773438 0 " clip-rule="nonzero"/></clipPath><clipPath id="edf4c8ca93"><path d="M 713.886719 -342.339844 L 1427 1032.25 L 0.773438 1032.25 Z M 713.886719 -342.339844 " clip-rule="nonzero"/></clipPath><clipPath id="f7ade390c9"><path d="M 0.773438 0 L 1427 0 L 1427 1032.25 L 0.773438 1032.25 Z M 0.773438 0 " clip-rule="nonzero"/></clipPath><clipPath id="0971f87216"><path d="M 713.886719 -342.339844 L 1427 1032.25 L 0.773438 1032.25 Z M 713.886719 -342.339844 " clip-rule="nonzero"/></clipPath><clipPath id="a495ab8cb4"><rect x="0" width="1427" y="0" height="1033"/></clipPath><clipPath id="99a1286be0"><path d="M 29.015625 347.378906 L 713.777344 347.378906 L 713.777344 1032.140625 L 29.015625 1032.140625 Z M 29.015625 347.378906 " clip-rule="nonzero"/></clipPath><clipPath id="cc5a5eb960"><path d="M 718.28125 347.378906 L 1403.046875 347.378906 L 1403.046875 1032.140625 L 718.28125 1032.140625 Z M 718.28125 347.378906 " clip-rule="nonzero"/></clipPath><clipPath id="30469c78cd"><path d="M 0.28125 0.378906 L 680.648438 0.378906 L 680.648438 685.140625 L 0.28125 685.140625 Z M 0.28125 0.378906 " clip-rule="nonzero"/></clipPath><clipPath id="cdcacb2e91"><rect x="0" width="686" y="0" height="686"/></clipPath><clipPath id="bdfdc6f75b"><path d="M 690.433594 2.15625 L 737.335938 2.15625 L 737.335938 1057.074219 L 690.433594 1057.074219 Z M 690.433594 2.15625 " clip-rule="nonzero"/></clipPath><clipPath id="37a8f51bcb"><path d="M 713.886719 2.257812 L 690.433594 1057.074219 L 737.335938 1057.074219 Z M 713.886719 2.257812 " clip-rule="nonzero"/></clipPath><clipPath id="dfefa64879"><path d="M 0.433594 0.160156 L 47.335938 0.160156 L 47.335938 1055.074219 L 0.433594 1055.074219 Z M 0.433594 0.160156 " clip-rule="nonzero"/></clipPath><clipPath id="16602663ae"><path d="M 23.886719 0.257812 L 0.433594 1055.074219 L 47.335938 1055.074219 Z M 23.886719 0.257812 " clip-rule="nonzero"/></clipPath><clipPath id="9aec9d1c30"><rect x="0" width="48" y="0" height="1056"/></clipPath><clipPath id="581219aa3c"><path d="M 529.1875 135 L 895.019531 135 L 895.019531 559 L 529.1875 559 Z M 529.1875 135 " clip-rule="nonzero"/></clipPath><clipPath id="0a9f139c3d"><rect x="0" width="1430" y="0" height="1058"/></clipPath><clipPath id="5bc4462f16"><rect x="0" width="1325" y="0" height="531"/></clipPath></defs><g clip-path="url(#d075b146d1)"><g transform="matrix(1, 0, 0, 1, 0, 0.000000000000112861)"><g clip-path="url(#5863a20dde)"><g clip-path="url(#4f30123252)"><g clip-path="url(#7e3c71b7f7)"><rect x="-330" width="2160" fill="#ff751f" height="2159.999904" y="-329.999985" fill-opacity="1"/></g></g></g></g></g><g transform="matrix(1, 0, 0, 1, 65, 0.000000000000112861)"><g clip-path="url(#0a9f139c3d)"><g clip-path="url(#1dc685eddf)"><g clip-path="url(#edf4c8ca93)"><g transform="matrix(1, 0, 0, 1, 0.000000000000014211, 0.000000000000112861)"><g clip-path="url(#a495ab8cb4)"><g clip-path="url(#f7ade390c9)"><g clip-path="url(#0971f87216)"><path fill="#ff751f" d="M 0.773438 -342.339844 L 1429.058594 -342.339844 L 1429.058594 1032.25 L 0.773438 1032.25 Z M 0.773438 -342.339844 " fill-opacity="1" fill-rule="nonzero"/></g></g></g></g></g></g><g clip-path="url(#99a1286be0)"><path fill="#ffffff" d="M 713.699219 1032.140625 L 24.699219 1032.140625 C 48.195312 1032.136719 71.628906 1030.949219 95.003906 1028.582031 C 117.988281 1026.246094 140.796875 1022.765625 163.433594 1018.140625 C 185.632812 1013.597656 207.855469 1007.882812 229.480469 1001.160156 C 250.859375 994.507812 272.164062 986.710938 292.796875 977.984375 C 333.871094 960.59375 372.894531 939.410156 409.859375 914.441406 C 446.539062 889.644531 480.539062 861.59375 511.851562 830.289062 C 543.15625 798.976562 571.207031 764.980469 596.003906 728.296875 C 620.972656 691.332031 642.152344 652.3125 659.546875 611.234375 C 668.273438 590.597656 676.070312 569.296875 682.722656 547.917969 C 689.445312 526.300781 695.160156 504.074219 699.703125 481.871094 C 704.328125 459.238281 707.808594 436.425781 710.144531 413.441406 C 712.515625 390.015625 713.699219 366.527344 713.699219 342.980469 Z M 713.699219 1032.140625 " fill-opacity="1" fill-rule="nonzero"/></g><g clip-path="url(#cc5a5eb960)"><g transform="matrix(1, 0, 0, 1, 718, 347)"><g clip-path="url(#cdcacb2e91)"><g clip-path="url(#30469c78cd)"><path fill="#ffffff" d="M -4.03125 685.140625 L 684.964844 685.140625 C 661.46875 685.136719 638.035156 683.949219 614.660156 681.582031 C 591.675781 679.246094 568.867188 675.765625 546.230469 671.140625 C 524.03125 666.597656 501.808594 660.882812 480.183594 654.160156 C 458.804688 647.507812 437.5 639.710938 416.867188 630.984375 C 375.792969 613.59375 336.769531 592.410156 299.804688 567.441406 C 263.125 542.644531 229.125 514.59375 197.8125 483.289062 C 166.507812 451.976562 138.457031 417.980469 113.660156 381.296875 C 88.691406 344.332031 67.511719 305.3125 50.117188 264.234375 C 41.390625 243.597656 33.59375 222.296875 26.945312 200.917969 C 20.21875 179.300781 14.503906 157.074219 9.960938 134.871094 C 5.335938 112.238281 1.855469 89.425781 -0.480469 66.441406 C -2.851562 43.015625 -4.035156 19.527344 -4.03125 -4.019531 Z M -4.03125 685.140625 " fill-opacity="1" fill-rule="nonzero"/></g></g></g></g><g clip-path="url(#bdfdc6f75b)"><g clip-path="url(#37a8f51bcb)"><g transform="matrix(1, 0, 0, 1, 690, 2)"><g clip-path="url(#9aec9d1c30)"><g clip-path="url(#dfefa64879)"><g clip-path="url(#16602663ae)"><path fill="#ff751f" d="M 47.335938 1055.074219 L 0.433594 1055.074219 L 0.433594 0.339844 L 47.335938 0.339844 Z M 47.335938 1055.074219 " fill-opacity="1" fill-rule="nonzero"/></g></g></g></g></g></g><g clip-path="url(#581219aa3c)"><path fill="#ffffff" d="M 713.835938 135.851562 C 702.894531 135.851562 697.644531 172.003906 695.785156 188.957031 C 695.398438 194.097656 694.960938 198.769531 694.960938 203.566406 L 694.960938 254.660156 C 694.847656 257.570312 694.34375 258.378906 692.660156 259.84375 L 653.210938 294.210938 C 650.519531 296.074219 647.015625 296.003906 647.285156 289.605469 L 647.285156 285.039062 C 647.285156 282.519531 645.273438 280.472656 642.753906 280.472656 L 637.09375 280.472656 C 634.574219 280.472656 632.523438 282.519531 632.523438 285.039062 L 632.523438 311.824219 C 632.539062 312.644531 632.390625 312.714844 631.808594 313.230469 L 594.398438 346.492188 C 590.566406 349.160156 589.164062 346.542969 588.964844 341.851562 L 588.964844 333.507812 C 588.964844 330.992188 586.949219 328.941406 584.433594 328.941406 L 578.769531 328.941406 C 576.253906 328.941406 574.203125 330.992188 574.203125 333.507812 L 574.203125 361.253906 C 574.199219 361.601562 574.058594 361.632812 573.898438 361.8125 L 533.773438 396.433594 C 531.21875 399.703125 529.703125 401.195312 529.808594 406.738281 L 529.667969 422.296875 C 529.34375 424.417969 531.320312 425.257812 532.707031 424.59375 C 532.707031 424.59375 601.226562 382.289062 627.503906 370.691406 C 653.78125 359.09375 688.808594 351.136719 688.808594 351.136719 C 691.507812 350.484375 693.921875 350.40625 694.960938 353.289062 L 694.960938 470.347656 C 695.03125 484.316406 700.308594 492.769531 694.960938 497.789062 L 651.28125 540.242188 C 648.628906 543.070312 647.097656 545.488281 646.789062 550.054688 L 646.851562 554.890625 C 647 557.152344 647.851562 558.316406 649.921875 558.050781 L 705.792969 544.3125 C 707.257812 543.851562 708.421875 544.007812 709.449219 545.429688 L 715.15625 558 L 722.167969 545.105469 C 723.132812 543.722656 724.953125 543.066406 726.328125 543.558594 C 743.558594 547.640625 760.792969 551.71875 778.027344 555.800781 C 780.242188 556.066406 782.039062 556.023438 782.324219 553.046875 L 782.324219 545.664062 C 781.164062 540.570312 778.238281 538.199219 775.167969 535.132812 L 731.3125 497.789062 C 727.210938 493.632812 731.277344 484.847656 732.671875 470.761719 L 732.671875 355.058594 L 732.710938 355.019531 L 732.746094 355.019531 L 732.746094 354.984375 L 732.785156 354.984375 L 732.785156 354.945312 L 732.824219 354.945312 L 732.824219 354.910156 L 732.859375 354.910156 C 732.894531 354.746094 732.933594 354.574219 732.972656 354.417969 C 733.015625 354.261719 733.078125 354.113281 733.125 353.964844 C 733.171875 353.816406 733.222656 353.6875 733.277344 353.550781 C 733.328125 353.410156 733.363281 353.265625 733.425781 353.132812 C 733.488281 353.003906 733.542969 352.878906 733.617188 352.757812 C 733.6875 352.636719 733.761719 352.527344 733.84375 352.417969 C 733.921875 352.308594 734.015625 352.214844 734.105469 352.113281 C 734.195312 352.015625 734.308594 351.898438 734.410156 351.8125 C 734.507812 351.726562 734.597656 351.660156 734.710938 351.585938 C 734.824219 351.511719 734.960938 351.421875 735.085938 351.359375 C 735.210938 351.300781 735.328125 351.253906 735.464844 351.207031 C 735.601562 351.164062 735.765625 351.125 735.917969 351.097656 C 736.070312 351.066406 736.207031 351.035156 736.371094 351.019531 C 736.535156 351.003906 736.71875 351.019531 736.898438 351.019531 C 737.078125 351.019531 737.269531 351.039062 737.464844 351.058594 C 737.660156 351.078125 737.859375 351.097656 738.070312 351.132812 C 738.070312 351.132812 769.871094 358.03125 796.695312 369.367188 C 823.519531 380.703125 895.050781 423.515625 895.050781 423.515625 C 896.691406 423.851562 898.074219 423.601562 898.28125 421.996094 L 898.28125 407.53125 C 898.375 403.648438 896.078125 400.203125 894.390625 398.660156 L 855.128906 363.917969 C 853.773438 362.273438 853.472656 361.957031 853.433594 360.984375 L 853.433594 333.503906 C 853.433594 330.988281 851.382812 328.9375 848.867188 328.9375 L 843.207031 328.9375 C 840.6875 328.9375 838.675781 330.988281 838.675781 333.503906 L 838.675781 341.847656 C 839.113281 346.808594 837.792969 348.648438 834.710938 346.300781 L 796.203125 313.230469 C 795.339844 312.492188 795.140625 312.460938 795.152344 311.742188 L 795.152344 285.035156 C 795.152344 282.515625 793.101562 280.464844 790.582031 280.464844 L 784.921875 280.464844 C 782.402344 280.464844 780.390625 282.515625 780.390625 285.035156 L 780.390625 289.601562 C 781.03125 295.964844 776.851562 297.238281 774.046875 294.167969 L 734.863281 259.757812 C 733.035156 258.109375 732.863281 257.097656 732.675781 254.796875 L 732.675781 203.5625 C 732.550781 198.496094 732.28125 192.816406 731.722656 188.191406 C 729.441406 170.246094 722.484375 131.527344 713.839844 135.847656 Z M 713.835938 135.851562 " fill-opacity="1" fill-rule="evenodd"/></g></g></g><g transform="matrix(1, 0, 0, 1, 116, 883)"><g clip-path="url(#5bc4462f16)"><g fill="#ffffff" fill-opacity="1"><g transform="translate(0.916737, 400.405394)"><g><path d="M 3.078125 0 L 3.078125 -3.859375 L 12.71875 -7.328125 C 17.863281 -9.378906 21.847656 -11.882812 24.671875 -14.84375 C 27.503906 -17.800781 29.820312 -21.976562 31.625 -27.375 L 111.0625 -255.296875 L 143.84375 -255.296875 L 222.125 -25.84375 C 224.1875 -20.1875 226.5 -15.878906 229.0625 -12.921875 C 231.632812 -9.960938 235.625 -7.457031 241.03125 -5.40625 L 245.65625 -3.859375 L 245.65625 0 L 147.703125 0 L 147.703125 -3.859375 L 153.484375 -5.78125 C 158.878906 -7.84375 162.15625 -10.734375 163.3125 -14.453125 C 164.46875 -18.179688 164.273438 -22.617188 162.734375 -27.765625 L 144.609375 -83.296875 L 59 -83.296875 L 40.5 -28.921875 C 38.695312 -23.265625 38.113281 -18.765625 38.75 -15.421875 C 39.394531 -12.078125 42.414062 -9.378906 47.8125 -7.328125 L 56.296875 -3.859375 L 56.296875 0 Z M 61.703125 -91.015625 L 142.296875 -91.015625 L 103.359375 -210.953125 Z M 61.703125 -91.015625 "/></g></g></g><g fill="#ffffff" fill-opacity="1"><g transform="translate(234.612622, 400.405394)"><g><path d="M 104.515625 -191.28125 C 121.222656 -191.28125 135.488281 -187.875 147.3125 -181.0625 C 159.132812 -174.25 168.195312 -164.992188 174.5 -153.296875 C 180.800781 -141.597656 183.953125 -128.289062 183.953125 -113.375 C 183.953125 -110.550781 183.820312 -107.660156 183.5625 -104.703125 C 183.300781 -101.742188 182.785156 -99.109375 182.015625 -96.796875 L 67.09375 -96.796875 C 67.351562 -69.023438 72.300781 -49.035156 81.9375 -36.828125 C 91.582031 -24.617188 105.921875 -18.515625 124.953125 -18.515625 C 137.804688 -18.515625 148.21875 -20.566406 156.1875 -24.671875 C 164.15625 -28.785156 171.609375 -34.832031 178.546875 -42.8125 L 182.40625 -39.328125 C 174.4375 -25.191406 163.832031 -14.140625 150.59375 -6.171875 C 137.351562 1.796875 121.476562 5.78125 102.96875 5.78125 C 84.707031 5.78125 68.507812 1.863281 54.375 -5.96875 C 40.238281 -13.8125 29.179688 -25.0625 21.203125 -39.71875 C 13.234375 -54.375 9.25 -71.859375 9.25 -92.171875 C 9.25 -113.253906 13.875 -131.1875 23.125 -145.96875 C 32.382812 -160.75 44.273438 -171.992188 58.796875 -179.703125 C 73.328125 -187.421875 88.566406 -191.28125 104.515625 -191.28125 Z M 103.359375 -183.5625 C 95.898438 -183.5625 89.535156 -181.3125 84.265625 -176.8125 C 78.992188 -172.3125 74.878906 -164.34375 71.921875 -152.90625 C 68.960938 -141.46875 67.351562 -125.335938 67.09375 -104.515625 L 133.046875 -104.515625 C 135.617188 -132.535156 134.585938 -152.710938 129.953125 -165.046875 C 125.328125 -177.390625 116.460938 -183.5625 103.359375 -183.5625 Z M 103.359375 -183.5625 "/></g></g></g><g fill="#ffffff" fill-opacity="1"><g transform="translate(413.162425, 400.405394)"><g><path d="M 7.71875 0 L 7.71875 -3.859375 L 13.5 -5.40625 C 18.632812 -6.945312 22.164062 -9.257812 24.09375 -12.34375 C 26.03125 -15.425781 27 -19.410156 27 -24.296875 L 27 -145 C 27 -150.65625 26.03125 -154.832031 24.09375 -157.53125 C 22.164062 -160.226562 18.632812 -162.09375 13.5 -163.125 L 7.71875 -164.671875 L 7.71875 -168.53125 L 74.046875 -190.890625 L 77.90625 -187.03125 L 81.375 -153.875 L 81.375 -150.78125 C 84.96875 -157.976562 89.65625 -164.597656 95.4375 -170.640625 C 101.226562 -176.679688 107.65625 -181.628906 114.71875 -185.484375 C 121.789062 -189.347656 128.800781 -191.28125 135.75 -191.28125 C 145.519531 -191.28125 152.972656 -188.578125 158.109375 -183.171875 C 163.253906 -177.773438 165.828125 -170.960938 165.828125 -162.734375 C 165.828125 -153.992188 163.316406 -147.242188 158.296875 -142.484375 C 153.285156 -137.734375 147.3125 -135.359375 140.375 -135.359375 C 129.570312 -135.359375 120.054688 -140.757812 111.828125 -151.5625 L 111.0625 -152.328125 C 108.488281 -155.929688 105.53125 -157.925781 102.1875 -158.3125 C 98.851562 -158.695312 95.769531 -157.085938 92.9375 -153.484375 C 90.363281 -151.171875 88.238281 -148.40625 86.5625 -145.1875 C 84.894531 -141.976562 83.289062 -138.316406 81.75 -134.203125 L 81.75 -26.609375 C 81.75 -16.328125 86.25 -9.898438 95.25 -7.328125 L 107.59375 -3.859375 L 107.59375 0 Z M 7.71875 0 "/></g></g></g><g fill="#ffffff" fill-opacity="1"><g transform="translate(566.260096, 400.405394)"><g><path d="M 105.28125 5.78125 C 85.738281 5.78125 68.769531 1.734375 54.375 -6.359375 C 39.976562 -14.460938 28.859375 -25.96875 21.015625 -40.875 C 13.171875 -55.789062 9.25 -73.273438 9.25 -93.328125 C 9.25 -113.378906 13.425781 -130.734375 21.78125 -145.390625 C 30.144531 -160.046875 41.585938 -171.359375 56.109375 -179.328125 C 70.640625 -187.296875 87.03125 -191.28125 105.28125 -191.28125 C 123.53125 -191.28125 139.851562 -187.359375 154.25 -179.515625 C 168.65625 -171.671875 180.035156 -160.421875 188.390625 -145.765625 C 196.742188 -131.117188 200.921875 -113.640625 200.921875 -93.328125 C 200.921875 -73.015625 197 -55.46875 189.15625 -40.6875 C 181.3125 -25.90625 170.253906 -14.460938 155.984375 -6.359375 C 141.722656 1.734375 124.820312 5.78125 105.28125 5.78125 Z M 105.28125 -1.921875 C 114.28125 -1.921875 121.476562 -4.492188 126.875 -9.640625 C 132.269531 -14.785156 136.1875 -23.910156 138.625 -37.015625 C 141.070312 -50.128906 142.296875 -68.640625 142.296875 -92.546875 C 142.296875 -116.710938 141.070312 -135.351562 138.625 -148.46875 C 136.1875 -161.582031 132.269531 -170.707031 126.875 -175.84375 C 121.476562 -180.988281 114.28125 -183.5625 105.28125 -183.5625 C 96.28125 -183.5625 89.015625 -180.988281 83.484375 -175.84375 C 77.960938 -170.707031 73.976562 -161.582031 71.53125 -148.46875 C 69.09375 -135.351562 67.875 -116.710938 67.875 -92.546875 C 67.875 -68.640625 69.09375 -50.128906 71.53125 -37.015625 C 73.976562 -23.910156 77.960938 -14.785156 83.484375 -9.640625 C 89.015625 -4.492188 96.28125 -1.921875 105.28125 -1.921875 Z M 105.28125 -1.921875 "/></g></g></g><g fill="#ffffff" fill-opacity="1"><g transform="translate(759.464118, 400.405394)"><g><path d="M 74.421875 5.78125 C 61.828125 5.78125 50.515625 4.300781 40.484375 1.34375 C 30.460938 -1.601562 21.207031 -5.265625 12.71875 -9.640625 L 13.109375 -55.53125 L 16.96875 -55.53125 L 30.078125 -32.390625 C 35.734375 -22.109375 41.96875 -14.457031 48.78125 -9.4375 C 55.59375 -4.425781 64.269531 -1.921875 74.8125 -1.921875 C 87.15625 -1.921875 97.117188 -4.6875 104.703125 -10.21875 C 112.285156 -15.75 116.078125 -23.140625 116.078125 -32.390625 C 116.078125 -40.878906 113.375 -47.820312 107.96875 -53.21875 C 102.570312 -58.613281 92.550781 -63.5 77.90625 -67.875 L 61.703125 -72.890625 C 46.015625 -77.515625 33.671875 -84.710938 24.671875 -94.484375 C 15.679688 -104.253906 11.1875 -116.207031 11.1875 -130.34375 C 11.1875 -147.3125 17.867188 -161.707031 31.234375 -173.53125 C 44.609375 -185.363281 63.765625 -191.28125 88.703125 -191.28125 C 98.722656 -191.28125 108.164062 -190.1875 117.03125 -188 C 125.90625 -185.8125 134.457031 -182.535156 142.6875 -178.171875 L 140.375 -136.515625 L 136.515625 -136.515625 L 123.015625 -160.421875 C 118.128906 -168.910156 113.304688 -174.890625 108.546875 -178.359375 C 103.796875 -181.828125 96.664062 -183.5625 87.15625 -183.5625 C 78.414062 -183.5625 70.1875 -181.117188 62.46875 -176.234375 C 54.757812 -171.347656 50.90625 -164.40625 50.90625 -155.40625 C 50.90625 -146.664062 54.179688 -139.722656 60.734375 -134.578125 C 67.296875 -129.441406 77.003906 -124.6875 89.859375 -120.3125 L 107.203125 -115.3125 C 125.710938 -109.65625 138.953125 -101.875 146.921875 -91.96875 C 154.898438 -82.070312 158.890625 -70.179688 158.890625 -56.296875 C 158.890625 -37.535156 151.492188 -22.5 136.703125 -11.1875 C 121.921875 0.125 101.160156 5.78125 74.421875 5.78125 Z M 74.421875 5.78125 "/></g></g></g><g fill="#ffffff" fill-opacity="1"><g transform="translate(910.633557, 400.405394)"><g><path d="M 8.484375 0 L 8.484375 -3.859375 L 14.265625 -5.78125 C 23.003906 -8.613281 27.375 -14.914062 27.375 -24.6875 L 27.375 -231 C 27.375 -236.144531 26.34375 -240 24.28125 -242.5625 C 22.226562 -245.132812 18.632812 -247.191406 13.5 -248.734375 L 8.484375 -249.890625 L 8.484375 -253.75 L 79.0625 -270.328125 L 83.6875 -266.859375 L 82.53125 -212.875 L 82.53125 -24.6875 C 82.53125 -14.394531 86.769531 -7.96875 95.25 -5.40625 L 100.65625 -3.859375 L 100.65625 0 Z M 151.5625 0 L 82.90625 -96.40625 L 154.25 -162.359375 C 157.59375 -165.441406 159.585938 -168.71875 160.234375 -172.1875 C 160.878906 -175.65625 158.628906 -178.160156 153.484375 -179.703125 L 146.921875 -181.640625 L 146.921875 -185.5 L 204.390625 -185.5 L 204.390625 -181.640625 L 192.8125 -178.546875 C 187.164062 -176.753906 182.601562 -174.632812 179.125 -172.1875 C 175.65625 -169.75 171.476562 -166.34375 166.59375 -161.96875 L 123.40625 -121.484375 L 192.4375 -25.453125 C 196.550781 -19.796875 200.40625 -15.425781 204 -12.34375 C 207.601562 -9.257812 212.234375 -6.6875 217.890625 -4.625 L 219.421875 -3.859375 L 219.421875 0 Z M 151.5625 0 "/></g></g></g><g fill="#ffffff" fill-opacity="1"><g transform="translate(1118.106137, 400.405394)"><g><path d="M 43.1875 92.546875 C 32.90625 92.546875 24.742188 89.972656 18.703125 84.828125 C 12.660156 79.691406 9.640625 73.140625 9.640625 65.171875 C 9.640625 57.972656 12.207031 52.1875 17.34375 47.8125 C 22.488281 43.445312 28.273438 41.265625 34.703125 41.265625 C 41.128906 41.265625 46.523438 42.613281 50.890625 45.3125 C 55.265625 48.007812 59.125 51.929688 62.46875 57.078125 L 65.171875 60.15625 C 70.828125 67.875 76.484375 67.75 82.140625 59.78125 C 84.453125 55.914062 87.085938 50.832031 90.046875 44.53125 C 93.003906 38.238281 96.410156 29.820312 100.265625 19.28125 L 25.453125 -159.65625 C 23.648438 -164.539062 21.71875 -168.460938 19.65625 -171.421875 C 17.601562 -174.378906 14.265625 -176.882812 9.640625 -178.9375 L 2.703125 -181.640625 L 2.703125 -185.5 L 98.71875 -185.5 L 98.71875 -182.015625 L 91.015625 -178.9375 C 85.359375 -177.132812 82.460938 -174.238281 82.328125 -170.25 C 82.203125 -166.269531 83.171875 -161.320312 85.234375 -155.40625 L 125.328125 -51.296875 L 163.515625 -156.5625 C 165.566406 -162.476562 166.332031 -167.425781 165.8125 -171.40625 C 165.300781 -175.394531 162.09375 -178.160156 156.1875 -179.703125 L 148.09375 -181.640625 L 148.09375 -185.5 L 201.6875 -185.5 L 201.6875 -181.640625 L 193.203125 -178.9375 C 187.296875 -177.132812 183.179688 -174.5625 180.859375 -171.21875 C 178.546875 -167.882812 176.363281 -163.257812 174.3125 -157.34375 L 112.21875 11.953125 C 102.195312 38.953125 92.171875 59.132812 82.140625 72.5 C 72.109375 85.863281 59.125 92.546875 43.1875 92.546875 Z M 43.1875 92.546875 "/></g></g></g></g></g></svg>